<svg xmlns="http://www.w3.org/2000/svg" width="64" height="64" shape-rendering="geometricPrecision" text-rendering="geometricPrecision" image-rendering="optimizeQuality" fill-rule="evenodd" clip-rule="evenodd" viewBox="0 0 640 640"><path d="M559.991 240.015c-21.992 0-40.004 18-40.004 40.004v159.982c0 21.993 18.012 40.005 40.004 40.005 21.992 0 39.993-18.012 39.993-40.005V280.02c0-22.004-18-40.004-39.993-40.004zm-61.123-40.004c-6.07-54.922-36.874-102.356-81-131.033l20.007-40.029c4.914-9.897.922-21.874-8.964-26.835-9.886-4.96-21.875-.92-26.835 8.965l-20.08 40.146-5.196-2.078A179.973 179.973 0 0 0 320 39.98a179.973 179.973 0 0 0-56.8 9.166l-5.197 2.078-20.079-40.146c-4.913-9.886-16.96-13.878-26.835-8.965-9.862 4.914-13.878 16.961-8.965 26.835l20.008 40.029c-44.114 28.63-74.93 76.11-81 131.033v20.008H499.99V200.01h-1.122zM260 160.03c-11.031 0-19.996-8.965-19.996-20.008 0-11.032 8.917-19.95 19.949-19.997h.094c11.032.048 19.95 8.965 19.95 19.997 0 11.043-8.965 20.008-19.997 20.008zm120.001 0c-11.031 0-19.996-8.965-19.996-20.008 0-11.032 8.917-19.95 19.949-19.997h.118c11.044.048 19.961 8.965 19.961 19.997 0 11.043-8.965 20.008-19.996 20.008H380zM80.008 240.015c-21.992 0-39.992 18-39.992 40.004v159.982c0 21.993 18 40.005 39.992 40.005 21.993 0 40.005-18.012 40.005-40.005V280.02c0-22.004-18.012-40.004-40.005-40.004zm60 219.983c0 33.13 26.883 60 60.002 60v80.01c0 21.992 18.012 40.004 40.004 40.004 21.992 0 40.004-18.012 40.004-40.004v-80.01h79.986v80.01c0 21.992 18 40.004 39.992 40.004 22.004 0 40.005-18.012 40.005-40.004v-80.01c33.118 0 60-26.87 60-60V240.015H140.008v219.983z"/></svg>